<?xml version="1.0" standalone="no"?>
<!DOCTYPE svg PUBLIC "-//W3C//DTD SVG 20010904//EN"
 "http://www.w3.org/TR/2001/REC-SVG-20010904/DTD/svg10.dtd">
<svg version="1.0" xmlns="http://www.w3.org/2000/svg"
 width="150.000000pt" height="150.000000pt" viewBox="0 0 150.000000 150.000000"
 preserveAspectRatio="xMidYMid meet">
<metadata>
Created by potrace 1.14, written by Peter Selinger 2001-2017
</metadata>
<g transform="translate(0.000000,150.000000) scale(0.100000,-0.100000)"
fill="#000000" stroke="none">
<path d="M370 750 l0 -401 73 3 72 3 3 187 c1 121 -2 219 -11 280 -8 51 -13
94 -12 96 1 1 12 -24 24 -55 12 -32 63 -127 113 -210 121 -204 114 -204 228
-2 46 83 94 175 105 204 l20 55 -4 -280 -3 -280 76 0 76 0 0 400 0 400 -64 0
c-59 0 -66 -2 -84 -27 -20 -31 -192 -339 -192 -346 0 -3 -7 -22 -16 -43 l-16
-39 -23 50 c-25 57 -200 361 -223 388 -11 13 -31 17 -79 17 l-63 0 0 -400z"/>
</g>
</svg>
